<svg xmlns="http://www.w3.org/2000/svg" version="1.1" id="Layer_1" x="0" y="0" xml:space="preserve" viewBox="146.54 399.16 175.57 2.4">
  <style>
    .st0{fill:#D0DEBB}
  </style>
  <circle class="st0" cx="202.16" cy="400.36" r="1.2"/>
  <circle class="st0" cx="207.11" cy="400.36" r="1.2"/>
  <circle class="st0" cx="212.06" cy="400.36" r="1.2"/>
  <circle class="st0" cx="217.01" cy="400.36" r="1.2"/>
  <circle class="st0" cx="221.95" cy="400.36" r="1.2"/>
  <circle class="st0" cx="226.9" cy="400.36" r="1.2"/>
  <circle class="st0" cx="231.85" cy="400.36" r="1.2"/>
  <circle class="st0" cx="236.8" cy="400.36" r="1.2"/>
  <circle class="st0" cx="241.74" cy="400.36" r="1.2"/>
  <circle class="st0" cx="251.64" cy="400.36" r="1.2"/>
  <circle class="st0" cx="246.69" cy="400.36" r="1.2"/>
  <circle class="st0" cx="256.59" cy="400.36" r="1.2"/>
  <circle class="st0" cx="261.53" cy="400.36" r="1.2"/>
  <circle class="st0" cx="266.48" cy="400.36" r="1.2"/>
  <circle class="st0" cx="271.43" cy="400.36" r="1.2"/>
  <circle class="st0" cx="276.38" cy="400.36" r="1.2"/>
  <circle class="st0" cx="281.32" cy="400.36" r="1.2"/>
  <circle class="st0" cx="286.27" cy="400.36" r="1.2"/>
  <circle class="st0" cx="291.22" cy="400.36" r="1.2"/>
  <circle class="st0" cx="296.17" cy="400.36" r="1.2"/>
  <circle class="st0" cx="301.12" cy="400.36" r="1.2"/>
  <circle class="st0" cx="306.06" cy="400.36" r="1.2"/>
  <circle class="st0" cx="311.01" cy="400.36" r="1.2"/>
  <circle class="st0" cx="315.96" cy="400.36" r="1.2"/>
  <circle class="st0" cx="320.91" cy="400.36" r="1.2"/>
  <circle class="st0" cx="147.74" cy="400.36" r="1.2"/>
  <circle class="st0" cx="152.69" cy="400.36" r="1.2"/>
  <circle class="st0" cx="157.63" cy="400.36" r="1.2"/>
  <circle class="st0" cx="162.58" cy="400.36" r="1.2"/>
  <circle class="st0" cx="167.53" cy="400.36" r="1.2"/>
  <circle class="st0" cx="172.48" cy="400.36" r="1.2"/>
  <circle class="st0" cx="177.42" cy="400.36" r="1.2"/>
  <circle class="st0" cx="187.32" cy="400.36" r="1.2"/>
  <circle class="st0" cx="182.37" cy="400.36" r="1.2"/>
  <circle class="st0" cx="192.27" cy="400.36" r="1.2"/>
  <circle class="st0" cx="197.21" cy="400.36" r="1.2"/>
</svg>
