<svg xmlns="http://www.w3.org/2000/svg" version="1.1" id="Layer_1" x="0" y="0" style="enable-background:new 0 0 612 792" xml:space="preserve" viewBox="198.18 392.24 175.56 2.4">
  <style>
    .st0{fill:#67823a}
  </style>
  <circle class="st0" cx="253.8" cy="393.44" r="1.2"/>
  <circle class="st0" cx="258.75" cy="393.44" r="1.2"/>
  <circle class="st0" cx="263.7" cy="393.44" r="1.2"/>
  <circle class="st0" cx="268.64" cy="393.44" r="1.2"/>
  <circle class="st0" cx="273.59" cy="393.44" r="1.2"/>
  <circle class="st0" cx="278.54" cy="393.44" r="1.2"/>
  <circle class="st0" cx="283.49" cy="393.44" r="1.2"/>
  <circle class="st0" cx="288.43" cy="393.44" r="1.2"/>
  <circle class="st0" cx="293.38" cy="393.44" r="1.2"/>
  <circle class="st0" cx="303.28" cy="393.44" r="1.2"/>
  <circle class="st0" cx="298.33" cy="393.44" r="1.2"/>
  <circle class="st0" cx="308.22" cy="393.44" r="1.2"/>
  <circle class="st0" cx="313.17" cy="393.44" r="1.2"/>
  <circle class="st0" cx="318.12" cy="393.44" r="1.2"/>
  <circle class="st0" cx="323.07" cy="393.44" r="1.2"/>
  <circle class="st0" cx="328.02" cy="393.44" r="1.2"/>
  <circle class="st0" cx="332.96" cy="393.44" r="1.2"/>
  <circle class="st0" cx="337.91" cy="393.44" r="1.2"/>
  <circle class="st0" cx="342.86" cy="393.44" r="1.2"/>
  <circle class="st0" cx="347.81" cy="393.44" r="1.2"/>
  <circle class="st0" cx="352.75" cy="393.44" r="1.2"/>
  <circle class="st0" cx="357.7" cy="393.44" r="1.2"/>
  <circle class="st0" cx="362.65" cy="393.44" r="1.2"/>
  <circle class="st0" cx="367.6" cy="393.44" r="1.2"/>
  <circle class="st0" cx="372.54" cy="393.44" r="1.2"/>
  <circle class="st0" cx="199.38" cy="393.44" r="1.2"/>
  <circle class="st0" cx="204.32" cy="393.44" r="1.2"/>
  <circle class="st0" cx="209.27" cy="393.44" r="1.2"/>
  <circle class="st0" cx="214.22" cy="393.44" r="1.2"/>
  <circle class="st0" cx="219.17" cy="393.44" r="1.2"/>
  <circle class="st0" cx="224.11" cy="393.44" r="1.2"/>
  <circle class="st0" cx="229.06" cy="393.44" r="1.2"/>
  <circle class="st0" cx="238.96" cy="393.44" r="1.2"/>
  <circle class="st0" cx="234.01" cy="393.44" r="1.2"/>
  <circle class="st0" cx="243.91" cy="393.44" r="1.2"/>
  <circle class="st0" cx="248.85" cy="393.44" r="1.2"/>
</svg>
