<svg xmlns="http://www.w3.org/2000/svg" xmlns:xlink="http://www.w3.org/1999/xlink" version="1.1" id="Layer_1" x="0" y="0" style="enable-background:new 0 0 612 792" xml:space="preserve" viewBox="265.63 331.19 103.01 100.82">
  <style>
    .st1{fill:#fff}
  </style>
  <defs>
    <path id="SVGID_1_" d="M265.63 339.79h103.01v92.22H265.63z"/>
  </defs>
  <clipPath id="SVGID_00000036239477641285165250000001172580423242791299_">
    <use xlink:href="#SVGID_1_" style="overflow:visible"/>
  </clipPath>
  <g style="opacity:.1;clip-path:url(#SVGID_00000036239477641285165250000001172580423242791299_)">
    <path class="st1" d="M312.06 383.43c-.77-.79-1.79-1.51-2.95-2.19-1.15-.73-2.36-1.35-3.61-1.89-2.25-1.11-4.51-2.2-6.14-3.47-.59-.51-1.11-1.05-1.6-1.6-.05-.08-.12-.15-.17-.23l-.01.01c-11.26-13.12 3.34-36.64 8.38-41.12l-2.35-1.75c-21.5 21.41-38.96 56.36-33.44 75.27 2.01 13.96 14.97 23.65 28.93 21.64s23.65-14.97 21.64-28.93c-.93-6.39-4.15-11.86-8.68-15.74z"/>
    <path class="st1" d="M356.08 383.43c-.77-.79-1.79-1.51-2.95-2.19-1.15-.73-2.36-1.35-3.61-1.89-2.25-1.11-4.51-2.2-6.14-3.47-.59-.51-1.11-1.05-1.6-1.6-.05-.08-.12-.15-.17-.23l-.01.01c-11.26-13.12 3.34-36.64 8.38-41.12l-2.35-1.75c-21.5 21.41-38.96 56.36-33.44 75.27 2.01 13.96 14.97 23.65 28.93 21.64s23.65-14.97 21.64-28.93c-.92-6.39-4.14-11.86-8.68-15.74z"/>
  </g>
</svg>
